<svg width="16" height="23" viewBox="0 0 16 23" fill="none" xmlns="http://www.w3.org/2000/svg">
<path d="M1 4.5C1 3.57174 1.36875 2.6815 2.02513 2.02513C2.68151 1.36875 3.57174 1 4.5 1H8V8H4.5C3.57174 8 2.68151 7.63125 2.02513 6.97487C1.36875 6.31849 1 5.42826 1 4.5Z" stroke="white" stroke-width="2" stroke-linecap="round" stroke-linejoin="round"/>
<path d="M8 1H11.5C11.9597 1 12.4148 1.09053 12.8394 1.26642C13.264 1.44232 13.6498 1.70012 13.9748 2.02513C14.2999 2.35014 14.5577 2.73597 14.7335 3.16061C14.9095 3.58525 15 4.04037 15 4.5C15 4.95963 14.9095 5.41475 14.7335 5.83939C14.5577 6.26403 14.2999 6.64986 13.9748 6.97487C13.6498 7.29988 13.264 7.55768 12.8394 7.73358C12.4148 7.90947 11.9597 8 11.5 8H8V1Z" stroke="white" stroke-width="2" stroke-linecap="round" stroke-linejoin="round"/>
<path d="M8 11.5C8 11.0403 8.09053 10.5852 8.26647 10.1606C8.44228 9.736 8.70012 9.35018 9.02515 9.02513C9.35018 8.70012 9.736 8.44232 10.1606 8.26642C10.5852 8.09053 11.0403 8 11.5 8C11.9597 8 12.4148 8.09053 12.8394 8.26642C13.264 8.44232 13.6498 8.70012 13.9748 9.02513C14.2999 9.35018 14.5577 9.736 14.7335 10.1606C14.9095 10.5852 15 11.0403 15 11.5C15 11.9597 14.9095 12.4148 14.7335 12.8394C14.5577 13.264 14.2999 13.6498 13.9748 13.9748C13.6498 14.2999 13.264 14.5577 12.8394 14.7335C12.4148 14.9095 11.9597 15 11.5 15C11.0403 15 10.5852 14.9095 10.1606 14.7335C9.736 14.5577 9.35018 14.2999 9.02515 13.9748C8.70012 13.6498 8.44228 13.264 8.26647 12.8394C8.09053 12.4148 8 11.9597 8 11.5Z" stroke="white" stroke-width="2" stroke-linecap="round" stroke-linejoin="round"/>
<path d="M1 18.5C1 17.5718 1.36875 16.6815 2.02513 16.0252C2.68151 15.3688 3.57174 15 4.5 15H8V18.5C8 19.4282 7.63122 20.3185 6.97485 20.9748C6.31848 21.6312 5.42826 22 4.5 22C3.57174 22 2.68151 21.6312 2.02513 20.9748C1.36875 20.3185 1 19.4282 1 18.5Z" stroke="white" stroke-width="2" stroke-linecap="round" stroke-linejoin="round"/>
<path d="M1 11.5C1 10.5718 1.36875 9.68152 2.02513 9.02513C2.68151 8.36875 3.57174 8 4.5 8H8V15H4.5C3.57174 15 2.68151 14.6312 2.02513 13.9748C1.36875 13.3185 1 12.4282 1 11.5Z" stroke="white" stroke-width="2" stroke-linecap="round" stroke-linejoin="round"/>
</svg>
