<svg width="16" height="23" viewBox="0 0 16 23" fill="none" xmlns="http://www.w3.org/2000/svg">
<path d="M2.64112 21.5556C2.35353 21.4407 2.05028 21.3823 1.75437 21.297C1.71797 21.2864 1.68207 21.274 1.64534 21.2652C1.47935 21.2251 1.48425 21.225 1.4707 21.0642C1.44198 20.7206 1.40542 20.3774 1.37571 20.034C1.34307 19.6623 1.31402 19.2901 1.28056 18.9186C1.23861 18.4528 1.18459 17.9879 1.15243 17.5214C1.12159 17.0714 1.07344 16.6233 1.03655 16.1739C1.00734 15.8186 0.966205 15.4643 0.933399 15.1094C0.903368 14.7831 0.878232 14.4556 0.848691 14.1283C0.819312 13.7958 0.787975 13.4635 0.75778 13.131C0.725137 12.7759 0.692984 12.4207 0.66132 12.0656C0.628677 11.7109 0.595218 11.3563 0.56486 11.0013C0.536624 10.6685 0.51459 10.3353 0.484885 10.0026C0.455179 9.66998 0.41764 9.33765 0.38614 9.00499C0.354965 8.66679 0.326403 8.32843 0.296045 7.98991C0.265687 7.65138 0.233207 7.31402 0.202849 6.97583C0.159325 6.49319 0.116672 6.01056 0.0748887 5.52792C0.0500801 5.24517 0.0238025 4.96242 0.00291097 4.67934C-0.00720836 4.54232 0.00291096 4.53981 0.134462 4.54282C0.346315 4.54785 0.558168 4.55025 0.770021 4.55003C2.07987 4.55003 3.38973 4.54969 4.69958 4.54902C5.24276 4.54818 5.7861 4.53763 6.32945 4.53813C7.25765 4.53914 8.18585 4.55338 9.11389 4.54634C9.64091 4.54249 10.1679 4.53177 10.695 4.5388C12.3251 4.56058 13.9555 4.54349 15.5859 4.55053C15.6945 4.55388 15.8032 4.54935 15.9111 4.53696C15.9813 4.52708 16.0065 4.55756 15.9986 4.63411C15.9602 5.01044 15.9246 5.38716 15.8917 5.76427C15.8632 6.08605 15.8403 6.40833 15.8119 6.7301C15.7781 7.11302 15.7399 7.4956 15.7057 7.87852C15.6768 8.19996 15.6515 8.52173 15.624 8.84334C15.6002 9.11481 15.5756 9.38628 15.5501 9.65775C15.5127 10.0514 15.4727 10.445 15.4359 10.8385C15.3903 11.3263 15.3451 11.8139 15.3028 12.3018C15.2465 12.9511 15.1954 13.6008 15.1378 14.2499C15.099 14.6879 15.0505 15.1249 15.0105 15.5628C14.9805 15.8899 14.9591 16.2177 14.9302 16.5447C14.8976 16.9055 14.861 17.265 14.8285 17.6265C14.7983 17.959 14.7721 18.292 14.7428 18.6246C14.7151 18.9407 14.6857 19.2565 14.6568 19.5724C14.6118 20.0662 14.5649 20.5606 14.5225 21.0539C14.5086 21.2159 14.5145 21.2191 14.3519 21.2648C13.8827 21.3965 13.4128 21.5258 12.9431 21.656C12.3163 21.8297 11.6896 22.0033 11.0628 22.1767L8.17949 22.9734C8.05872 23.0081 7.93106 23.0087 7.80997 22.9752C6.95897 22.7384 6.10802 22.5016 5.25712 22.2648C5.09554 22.2201 4.93216 22.1821 4.7696 22.1411C4.56689 22.1384 4.38441 22.0462 4.19198 21.999C3.66953 21.8707 3.14774 21.7409 2.64112 21.5556Z" fill="white"/>
<path d="M12.8455 1.40276C12.8599 1.50471 12.913 1.54066 12.9541 1.58423C13.2532 1.90099 13.5496 2.2221 13.8566 2.52949C13.9639 2.63842 14.0052 2.75018 13.9995 2.90899C13.9886 3.21399 13.9995 3.51898 13.9959 3.82289C13.9941 3.9854 13.9829 3.99826 13.8376 3.99847C12.9416 4.00051 12.0456 4.00051 11.1496 3.99847C11.0078 3.99847 11.0042 3.99434 11.003 3.84358C11.0004 3.51724 11.0004 3.19082 11.003 2.86433C11.004 2.7151 11.0076 2.71184 11.1534 2.71184C11.4501 2.71184 11.7469 2.71467 12.0425 2.71598C12.0739 2.71598 12.1109 2.72709 12.1287 2.68569C12.1465 2.6443 12.1174 2.61772 12.0949 2.59311C11.8641 2.34272 11.6336 2.09299 11.4034 1.84391C11.3095 1.74217 11.2163 1.63935 11.1184 1.54218C11.0805 1.50761 11.0503 1.46392 11.0302 1.41448C11.01 1.36504 11.0005 1.31117 11.0022 1.25702C11.006 0.886666 11.006 0.516316 11.0001 0.147055C10.9983 0.0294148 11.0414 -0.000431025 11.1397 4.68066e-06C12.0423 0.00305462 12.9448 0.0017475 13.8473 0.00392603C13.991 0.00392603 13.9983 0.0154722 13.9981 0.159909C13.9981 0.522416 13.9967 0.885141 13.9933 1.24787C13.992 1.40036 13.989 1.40189 13.8466 1.40254C13.5173 1.40363 13.1883 1.40276 12.8455 1.40276Z" fill="#FEFEFE"/>
<path d="M8.84938 1.4227C8.83936 1.48264 8.8655 1.5075 8.88986 1.52951C9.25069 1.85651 9.55648 2.24476 9.89431 2.59769C9.92308 2.62641 9.94568 2.66192 9.96044 2.70161C9.9752 2.7413 9.98175 2.78415 9.9796 2.82702C9.9796 3.16775 9.98078 3.50869 9.98766 3.84942C9.98943 3.9449 9.95602 3.98022 9.87544 3.98392C9.80371 3.98632 9.73217 3.99853 9.66044 3.99853C8.85626 3.99984 8.05201 4.00027 7.2477 3.99984C7.0158 3.99984 7.00872 3.99875 7.00263 3.73323C6.99575 3.42912 7.00459 3.12502 7.0042 2.8207C7.0042 2.71584 7.06316 2.70756 7.13469 2.708C7.39018 2.70974 7.64566 2.71214 7.89977 2.70952C7.97445 2.70952 8.08234 2.75596 8.11595 2.67312C8.15054 2.58592 8.04205 2.53731 7.99076 2.48019C7.71425 2.17151 7.43675 1.8637 7.15179 1.56461C7.10849 1.52174 7.07436 1.46869 7.05189 1.40933C7.02941 1.34997 7.01917 1.2858 7.02189 1.22149C7.02405 0.872693 7.01815 0.525208 7.01855 0.17707C7.01855 0.00594325 7.02208 0.00114734 7.1681 0.000929349C8.05745 -0.000378623 8.94679 -0.000305959 9.83614 0.00114734C9.97528 0.00114734 9.98058 0.00659723 9.98215 0.15963C9.98569 0.514744 9.9798 0.870077 9.99768 1.22519C10.0065 1.39806 9.99768 1.39959 9.83221 1.40155C9.57063 1.40329 9.30905 1.40155 9.04768 1.40286C8.98361 1.40329 8.91836 1.38803 8.84938 1.4227Z" fill="#FEFFFE"/>
<path d="M3.00375 1.99726V0.257289C3.00375 0.213714 3.00375 0.170138 3.00375 0.126563C3.00572 0.0498695 3.0365 0.00324358 3.11127 0.00411509H3.19019L5.79044 0.0010648C5.81668 0.0010648 5.84311 0.00324358 5.86935 0.0010648C5.96149 -0.00765033 5.99799 0.0370147 5.99739 0.139417C5.99522 0.516564 5.99404 0.893494 5.99996 1.27042C6.00193 1.40289 5.93347 1.40355 5.84844 1.40311C5.41441 1.40137 4.98195 1.40159 4.54871 1.40093C4.50925 1.40269 4.46973 1.40203 4.43034 1.39897C4.32834 1.38633 4.28928 1.4347 4.29066 1.54691C4.29381 1.80836 4.29066 2.06873 4.28947 2.32975C4.28947 2.71103 4.28947 2.71234 4.62762 2.71103C5.02812 2.70951 5.42861 2.70537 5.82891 2.70297C5.99345 2.70297 5.99601 2.70297 5.9972 2.87945C5.99943 3.19131 5.99943 3.50302 5.9972 3.81459C5.99601 3.9671 5.99266 3.9708 5.85574 3.98148C5.73145 3.99128 5.60676 3.99869 5.48228 3.99891C4.7339 4.00036 3.98552 4.00036 3.23714 3.99891C3.19117 3.99891 3.1452 3.99891 3.09904 3.99739C3.03472 3.99739 3.00335 3.95838 3.00158 3.88845C3.00039 3.83768 3 3.78691 3 3.73593V1.99726H3.00375Z" fill="#FEFEFE"/>
<path d="M8.18605 9.9014C8.06658 9.87929 7.96506 9.90994 7.86289 9.91045C7.33015 9.91229 6.79758 9.91966 6.26485 9.92351C5.29742 9.93044 4.33004 9.9368 3.36272 9.94261C3.20636 9.94361 3.20441 9.94428 3.17943 9.77628C3.09239 9.18766 3.00637 8.59894 2.92139 8.0101C2.90507 7.90139 2.90768 7.89754 3.01834 7.89687C3.23574 7.8957 3.45315 7.89855 3.6712 7.89838C5.01381 7.89754 6.35658 7.90776 7.69902 7.89252C9.38405 7.87342 11.0689 7.88933 12.7538 7.87191C12.9717 7.86973 12.9718 7.87191 12.9478 8.09201C12.918 8.3689 12.9017 8.64679 12.8858 8.92485C12.8695 9.21949 12.8414 9.51363 12.8223 9.80827C12.8171 9.89051 12.7686 9.92016 12.7045 9.9478C12.4092 10.0741 12.1154 10.2039 11.8208 10.3317C10.7825 10.7815 9.74421 11.2316 8.70605 11.6818C8.51166 11.7664 8.32331 11.8661 8.12011 11.9285C8.08534 11.9377 8.05549 11.9606 8.03704 11.9922C8.08698 12.0393 8.14802 12.0227 8.20123 12.014C8.29916 11.9972 8.39595 11.9991 8.49371 11.9989L12.4074 11.9952C12.4347 11.9952 12.4618 11.9952 12.489 11.9952C12.6309 11.9976 12.6359 12.0016 12.624 12.1491C12.5818 12.6595 12.5362 13.1696 12.4954 13.6801C12.4507 14.2411 12.4112 14.8024 12.3663 15.3634C12.3386 15.7075 12.3035 16.0502 12.2744 16.3949C12.2467 16.7222 12.2208 17.0497 12.1969 17.3775C12.1768 17.6498 12.1564 17.9222 12.1432 18.1949C12.1383 18.2937 12.0875 18.3249 12.005 18.3477C11.436 18.504 10.8676 18.6626 10.2998 18.8234C9.67457 19.0011 9.05027 19.1827 8.42565 19.3627C8.32168 19.3926 8.21869 19.4254 8.11391 19.452C8.02907 19.4728 7.94032 19.4695 7.85717 19.4425C7.21345 19.2479 6.56941 19.0547 5.92503 18.8627C5.30172 18.6766 4.67807 18.4921 4.05508 18.3048C3.92288 18.2649 3.92451 18.2609 3.91374 18.1259C3.86129 17.4933 3.80868 16.8606 3.75591 16.2279C3.72963 15.9056 3.70694 15.5832 3.68246 15.2607C3.67414 15.1508 3.6761 15.1448 3.77909 15.1435C3.97494 15.1416 4.1708 15.1435 4.36666 15.1435C4.74711 15.1435 5.12757 15.1435 5.50818 15.1435C5.6652 15.1435 5.6621 15.1451 5.67434 15.311C5.70698 15.7498 5.74403 16.1884 5.77406 16.6274C5.78059 16.7209 5.83363 16.7525 5.90578 16.7703C6.44259 16.9016 6.96896 17.0726 7.503 17.2145C7.57122 17.2326 7.6414 17.2462 7.70653 17.2728C7.92328 17.3612 8.13088 17.3497 8.35482 17.2751C8.94631 17.0778 9.54433 16.9004 10.1394 16.7142C10.2714 16.673 10.2667 16.6709 10.275 16.5314C10.3041 16.0421 10.3374 15.553 10.3669 15.0639C10.3844 14.7747 10.3996 14.4852 10.4123 14.1956C10.4193 14.0359 10.4157 14.0351 10.2514 14.0351C8.76187 14.0351 7.27243 14.0356 5.78304 14.0366C5.07109 14.0366 4.35904 14.0366 3.64688 14.0366C3.49525 14.0366 3.4933 14.0366 3.4902 13.88C3.4791 13.3105 3.41316 12.7453 3.39569 12.1768C3.38998 11.9897 3.39178 11.9952 3.55613 11.9255C4.15219 11.6719 4.74728 11.4161 5.34138 11.1582C6.08058 10.8378 6.81847 10.5143 7.55784 10.1944C7.73737 10.1166 7.9205 10.0475 8.10167 9.97326C8.12876 9.96204 8.16255 9.95601 8.18605 9.9014Z" fill="#130160"/>
</svg>
