<svg width="16" height="23" viewBox="0 0 16 23" fill="none" xmlns="http://www.w3.org/2000/svg">
<g clip-path="url(#clip0_872_25981)">
<path d="M7.93727 23.0001C7.91765 22.988 7.89946 22.9705 7.87824 22.9645C7.14707 22.7576 6.41567 22.5514 5.68403 22.3458C5.10147 22.1816 4.51891 22.0171 3.93636 21.8521C3.21393 21.6477 2.49168 21.4429 1.7696 21.2379C1.66697 21.2088 1.56452 21.18 1.45752 21.15C1.45048 21.0824 1.44263 21.0171 1.43701 20.9518C1.40039 20.5278 1.36395 20.1037 1.32769 19.6796C1.28073 19.1384 1.23347 18.5972 1.18592 18.056C1.13551 17.4849 1.0846 16.9137 1.03318 16.3425C0.979676 15.7384 0.926384 15.1342 0.8733 14.5301C0.84432 14.1964 0.819175 13.8625 0.789839 13.5288C0.759166 13.18 0.724569 12.8316 0.693539 12.4828C0.671158 12.2303 0.652701 11.9775 0.631123 11.725C0.607672 11.4544 0.581635 11.1839 0.557827 10.9133C0.53402 10.6427 0.512263 10.3721 0.488456 10.1016C0.458941 9.7648 0.428001 9.42814 0.398308 9.09139C0.380475 8.89573 0.36487 8.6999 0.34775 8.50488C0.319039 8.1771 0.289346 7.8495 0.260813 7.5218C0.235579 7.23317 0.21186 6.94445 0.186359 6.65582C0.157201 6.32513 0.12626 5.99427 0.0971918 5.66386C0.0728493 5.39036 0.0499334 5.11668 0.02675 4.84309C0.0178334 4.74422 0.00989751 4.64526 0 4.53335C0.0395009 4.5318 0.0704418 4.52945 0.101383 4.52945C1.28332 4.5283 2.46519 4.52727 3.64701 4.52637C7.55495 4.52637 11.4629 4.52652 15.3707 4.52682C15.5549 4.52682 15.739 4.52909 15.923 4.53072C15.9463 4.53072 15.9695 4.53325 15.9993 4.53498C15.9993 4.56216 16.001 4.58518 15.9993 4.60802C15.9748 4.88768 15.9492 5.16716 15.925 5.44682C15.8884 5.87084 15.8531 6.29487 15.8163 6.7188C15.7936 6.98043 15.7685 7.24178 15.745 7.50323C15.716 7.8279 15.6874 8.15263 15.659 8.47742C15.6209 8.91023 15.5831 9.34308 15.5454 9.77595C15.5149 10.1278 15.4859 10.4798 15.4551 10.8316C15.4189 11.2466 15.381 11.6614 15.3447 12.0762C15.321 12.3468 15.2996 12.6176 15.2757 12.8882C15.2468 13.2159 15.2154 13.5433 15.1865 13.871C15.1557 14.2228 15.1276 14.5748 15.0967 14.9265C15.0677 15.2572 15.0359 15.588 15.0067 15.9184C14.9825 16.1919 14.9612 16.4657 14.937 16.7392C14.908 17.07 14.8771 17.4007 14.8473 17.7313C14.8308 17.9147 14.8146 18.0981 14.7986 18.2814C14.768 18.6332 14.7376 18.985 14.7076 19.3368C14.6835 19.6165 14.6595 19.8961 14.6354 20.1758C14.6143 20.4162 14.592 20.6566 14.5707 20.8971C14.5651 20.9605 14.5596 21.0239 14.5577 21.0868C14.5564 21.1333 14.5376 21.1549 14.4923 21.1675C14.0118 21.3004 13.5317 21.4348 13.052 21.5707C12.0205 21.8614 10.9892 22.1524 9.95788 22.4436C9.34102 22.6174 8.72384 22.7909 8.10633 22.9639C8.07842 22.9717 8.05283 22.988 8.02608 23.0001H7.93727ZM5.17167 9.96753H5.36846C6.30097 9.96795 7.23348 9.96834 8.16598 9.9687C9.48755 9.9687 10.8091 9.9687 12.1307 9.9687C12.3416 9.9687 12.5525 9.9687 12.7632 9.96662C12.8469 9.9659 12.852 9.95864 12.858 9.87292C12.8663 9.75511 12.8738 9.63802 12.8842 9.52085C12.9088 9.24418 12.9352 8.96805 12.9603 8.69111C12.9791 8.48385 12.9978 8.27651 13.0147 8.06907C13.0185 8.0224 13.0153 7.97519 13.0153 7.92507H2.96925C3.14991 9.98565 3.32967 12.037 3.51032 14.0982H10.4576C10.3794 14.9838 10.3022 15.8575 10.2248 16.7353C10.1702 16.7499 10.1219 16.7625 10.0733 16.7756C9.42306 16.9533 8.77288 17.1309 8.12274 17.3086C8.03892 17.3315 7.95805 17.3423 7.86959 17.3176C7.29304 17.1544 6.71426 16.9968 6.13628 16.8378C6.01376 16.804 5.89161 16.7687 5.76499 16.733C5.7169 16.1907 5.66934 15.6534 5.62232 15.1212C5.48973 15.1006 3.67198 15.1076 3.60635 15.1283C3.60635 15.1475 3.60484 15.1682 3.60635 15.1886C3.63667 15.5404 3.66722 15.8923 3.69801 16.2442C3.72851 16.593 3.75915 16.9418 3.78995 17.2906C3.81782 17.6094 3.84579 17.9281 3.87385 18.2469C3.87947 18.3103 3.89168 18.322 3.95267 18.3391C4.164 18.3986 4.37533 18.4582 4.58665 18.5179C5.00359 18.6352 5.4206 18.7525 5.83766 18.8697C6.30329 19.0008 6.76886 19.132 7.23437 19.2634C7.45425 19.3256 7.67378 19.3891 7.89367 19.4514C7.95118 19.4678 8.00753 19.4756 8.06852 19.4582C8.56197 19.3179 9.05623 19.1803 9.55003 19.0414C10.3749 18.8089 11.1997 18.5763 12.0244 18.3436C12.113 18.3187 12.112 18.3188 12.1196 18.2306C12.1349 18.0561 12.1514 17.8818 12.1673 17.7074C12.1897 17.461 12.2129 17.2147 12.2345 16.9683C12.2532 16.7548 12.2696 16.5412 12.288 16.3277C12.3101 16.0751 12.3339 15.8226 12.3561 15.5701C12.3797 15.3026 12.4019 15.0354 12.4255 14.7674C12.4493 14.4968 12.475 14.2262 12.4982 13.9556C12.5202 13.7 12.5384 13.4441 12.5612 13.1886C12.592 12.8428 12.6258 12.4973 12.6577 12.1516C12.6603 12.1226 12.6577 12.0932 12.6577 12.0519C10.2199 12.0485 7.78916 12.0537 5.35108 12.0519C5.29178 11.3564 5.23231 10.6697 5.17167 9.96753Z" fill="white"/>
<path d="M11.5895 0C11.5898 1.01147 11.5901 2.02288 11.5904 3.03422C11.5904 3.05235 11.5881 3.06975 11.5871 3.08642C11.5228 3.10754 10.7132 3.11406 10.5734 3.09385V1.60964L10.5538 1.60411C10.3282 1.95817 10.1027 2.31232 9.86721 2.6817C9.73792 2.49475 9.62824 2.31341 9.51366 2.13552C9.39908 1.95763 9.28745 1.77829 9.16591 1.60085C9.14317 1.69944 9.15637 1.79795 9.1537 1.89555C9.15093 1.99524 9.15245 2.09492 9.15227 2.19461C9.15209 2.29429 9.15227 2.39398 9.15227 2.49366C9.15227 2.59335 9.15227 2.69303 9.15173 2.79271C9.1512 2.8924 9.15173 2.99091 9.15173 3.08706C9.07933 3.10736 8.26069 3.11107 8.15993 3.09268C8.1585 3.05933 8.15565 3.02389 8.15565 2.98846C8.15529 2.02538 8.15506 1.06228 8.15494 0.0991411C8.15494 0.0661544 8.152 0.0331679 8.15039 0.000181245H9.23698C9.25695 0.0430457 9.27345 0.0880851 9.29752 0.128412C9.4631 0.406442 9.63029 0.683475 9.79686 0.960961C9.81968 0.998932 9.84188 1.03736 9.8697 1.08439C9.88923 1.05829 9.90466 1.04107 9.91643 1.0215C10.0197 0.849314 10.1225 0.67689 10.2249 0.504224C10.3248 0.336391 10.4221 0.168014 10.5204 0H11.5895Z" fill="white"/>
<path d="M4.4621 0C4.46023 0.036249 4.45657 0.072498 4.45657 0.108113C4.45616 1.07155 4.45592 2.03499 4.45586 2.99843V3.08488C4.38337 3.10799 3.52754 3.11207 3.43338 3.09005V2.06719C3.12219 2.0652 2.81876 2.06665 2.50605 2.0661V3.08262C2.43775 3.10754 1.62107 3.11461 1.49142 3.09376C1.48784 3.07138 1.48549 3.04881 1.48438 3.02616C1.48438 2.02327 1.48485 1.02059 1.4858 0.0181245C1.4858 0.0120528 1.48634 0.00607171 1.48669 0H2.50204V1.01805H3.42866V0H4.4621Z" fill="white"/>
<path d="M7.7058 -3.51685e-05C7.70705 0.0662099 7.70937 0.132455 7.70945 0.198609C7.70945 0.44329 7.70928 0.687971 7.70892 0.932652V1.0298H6.82091C6.8177 1.0655 6.81288 1.09396 6.81279 1.12232C6.81184 1.7446 6.81113 2.36687 6.81065 2.98915V3.08476C6.74199 3.10814 5.99148 3.11684 5.79968 3.09753C5.78782 2.87161 5.79656 2.64351 5.79495 2.41578C5.79335 2.18805 5.79495 1.96267 5.79495 1.73611V1.04212C5.64168 1.02309 5.49384 1.03705 5.34671 1.0346C5.20164 1.03216 5.05656 1.03406 4.90088 1.03406C4.89874 0.996088 4.89553 0.964279 4.89544 0.932471C4.89499 0.654531 4.89544 0.376683 4.89499 0.0987434C4.89499 0.0656662 4.89214 0.0325889 4.89062 -0.000488281L7.7058 -3.51685e-05Z" fill="white"/>
<path d="M13.1219 0C13.1204 0.0330772 13.1175 0.0661544 13.1175 0.0996848C13.1175 0.724437 13.1175 1.34922 13.1175 1.97403C13.1175 2.00629 13.1203 2.03864 13.1221 2.08133H14.5435V3.0973H12.0924V3.00568C12.0924 2.03076 12.0924 1.05587 12.0924 0.0810165C12.0924 0.0538298 12.0895 0.026643 12.0879 0L13.1219 0Z" fill="white"/>
</g>
<defs>
<clipPath id="clip0_872_25981">
<rect width="16" height="23" fill="white"/>
</clipPath>
</defs>
</svg>
